<?xml version="1.0" standalone="no"?>
<!DOCTYPE svg PUBLIC "-//W3C//DTD SVG 20010904//EN"
 "http://www.w3.org/TR/2001/REC-SVG-20010904/DTD/svg10.dtd">
<svg version="1.0" xmlns="http://www.w3.org/2000/svg"
 width="435.000000pt" height="435.000000pt" viewBox="0 0 435.000000 435.000000"
 preserveAspectRatio="xMidYMid meet">
<metadata>
Created by potrace 1.11, written by Peter Selinger 2001-2013
</metadata>
<g transform="translate(0.000000,435.000000) scale(0.100000,-0.100000)"
fill="#000000" stroke="none">
<path d="M0 2175 l0 -2175 2175 0 2175 0 0 2175 0 2175 -2175 0 -2175 0 0
-2175z m2989 1249 c-22 -25 -68 -57 -293 -206 -251 -168 -251 -168 -313 -168
l-58 0 25 20 c14 11 41 27 60 37 19 10 53 30 75 44 119 79 369 231 470 287 11
6 29 12 39 12 18 0 18 -2 -5 -26z m-1160 -72 c7 -16 13 -52 13 -80 2 -59 9
-65 25 -21 8 21 17 30 30 27 14 -3 17 -12 16 -42 -2 -33 0 -37 15 -30 41 18
157 15 214 -5 63 -22 198 -97 198 -110 0 -19 -49 -38 -114 -44 -74 -7 -125
-30 -141 -64 -5 -12 -18 -24 -30 -27 -31 -8 -95 -65 -95 -85 0 -9 -19 -31 -42
-49 -73 -53 -176 -126 -195 -138 -16 -10 -16 -13 -3 -30 14 -17 14 -18 -2 -6
-14 12 -29 1 -122 -88 -58 -56 -108 -111 -111 -121 -8 -25 11 -49 38 -49 37 0
273 172 261 191 -3 5 2 9 11 9 25 0 87 35 115 65 14 15 41 36 60 46 19 10 59
35 88 54 l53 35 -16 -29 c-8 -17 -15 -53 -15 -81 0 -51 5 -58 46 -64 10 -2 21
-13 24 -26 3 -13 14 -28 24 -34 14 -9 21 -7 34 13 37 52 71 81 96 81 32 0 46
-25 46 -82 0 -36 -10 -60 -55 -131 -74 -116 -106 -214 -108 -326 -1 -78 3 -94
31 -154 28 -60 37 -70 77 -88 33 -15 50 -17 63 -10 15 9 14 10 -8 11 -106 1
-168 175 -126 353 18 75 37 117 96 209 54 83 67 127 51 178 -23 77 -91 76
-152 -1 -35 -45 -49 -43 -49 7 0 65 48 126 109 138 81 15 152 -36 189 -134 19
-51 21 -53 21 -22 1 44 -29 102 -74 140 -35 31 -45 35 -105 35 -16 0 -39 -1
-49 -2 -31 -2 -82 -51 -102 -99 -26 -59 -53 -56 -57 8 -3 55 34 120 84 143 49
24 145 41 186 33 79 -15 169 -100 203 -193 13 -36 14 -36 14 -10 2 65 -84 172
-165 209 -40 17 -58 18 -167 12 -67 -3 -149 -12 -182 -20 -84 -19 -95 -18 -95
9 0 14 12 30 33 44 61 42 112 53 246 53 118 0 130 -2 186 -29 88 -41 165 -110
198 -174 15 -30 27 -59 27 -65 0 -7 4 -12 9 -12 11 0 2 34 -22 91 -22 53 -111
133 -194 176 -71 35 -77 37 -181 37 -59 0 -125 -4 -147 -8 l-40 -8 19 21 c27
30 80 41 198 42 176 1 278 -54 375 -201 46 -70 70 -137 83 -233 14 -98 9 -152
-21 -273 -21 -84 -22 -135 -3 -141 7 -2 10 5 7 20 -6 29 15 137 26 137 4 0 18
-25 30 -55 32 -77 100 -149 159 -169 99 -34 292 -30 292 6 0 18 127 163 167
191 49 34 93 36 93 6 0 -28 -30 -70 -114 -156 -74 -78 -77 -98 -5 -34 56 49
98 70 154 78 49 6 75 -7 75 -38 0 -25 -50 -61 -155 -109 -163 -75 -174 -81
-140 -75 17 4 69 22 118 41 94 38 149 42 155 12 5 -24 -46 -48 -137 -64 -42
-7 -82 -13 -89 -14 -7 0 -10 -5 -6 -11 4 -7 22 -9 47 -6 46 6 67 0 67 -19 0
-27 -54 -29 -201 -8 -45 6 -46 6 -85 -42 -55 -68 -88 -95 -310 -250 -71 -50
-189 -101 -324 -140 -84 -24 -112 -28 -245 -28 -218 -1 -273 11 -412 91 -110
65 -168 115 -245 211 -92 116 -122 196 -153 399 -10 70 -26 129 -44 168 -51
109 -56 132 -55 275 0 126 2 140 32 219 61 162 143 286 214 322 43 22 44 23
23 72 -20 47 -19 96 0 104 20 7 51 -21 59 -53 9 -35 30 -31 23 5 -10 48 15
110 44 111 4 0 12 -13 18 -28z m259 -553 l-77 -51 -30 34 c-39 42 -38 48 2 42
17 -3 57 1 87 10 95 26 99 18 18 -35z m-110 -71 c-23 -14 -36 -9 -58 22 -17
24 -19 34 -10 45 10 12 17 9 46 -22 26 -27 31 -39 22 -45z m-66 -5 c15 -16 17
-25 9 -41 -13 -24 -55 -52 -89 -58 -21 -4 -23 -3 -14 9 10 12 8 13 -11 10 -21
-4 -24 -1 -22 26 1 25 -1 29 -12 19 -7 -6 -16 -9 -19 -6 -2 3 23 26 58 52 56
41 63 44 71 29 6 -10 19 -28 29 -40z m-944 -142 c47 -24 96 -73 129 -128 l25
-43 -31 -37 c-29 -35 -30 -39 -14 -51 14 -10 21 -8 44 14 27 25 27 26 34 5 3
-11 3 -25 0 -31 -3 -5 0 -10 9 -10 9 0 18 -18 25 -50 18 -82 14 -120 -19 -177
-29 -51 -32 -53 -73 -53 -53 0 -132 37 -173 81 -31 33 -95 131 -90 136 1 2 41
10 87 19 98 18 114 25 105 49 -5 15 -16 16 -84 9 -128 -13 -135 -12 -143 16
-11 38 -10 185 1 214 20 53 102 71 168 37z m490 -287 c13 -26 22 -48 20 -49
-13 -13 -118 -7 -118 6 0 13 59 89 69 89 4 0 17 -21 29 -46z m41 -191 c19
-100 38 -167 65 -234 5 -12 -3 -19 -36 -28 -49 -15 -123 -63 -132 -86 -5 -14
-11 -14 -46 6 -28 16 -39 28 -35 39 5 12 4 13 -6 3 -7 -7 -23 -13 -36 -13 -30
0 -30 26 -1 57 12 13 17 23 11 23 -6 0 -16 -7 -23 -15 -18 -22 -24 -19 -44 22
l-18 37 34 28 c18 15 29 28 24 28 -6 0 -20 -10 -33 -22 -27 -25 -44 -17 -20
10 10 10 17 28 17 41 0 14 9 25 25 31 32 12 41 35 28 71 -9 23 -8 31 11 47 45
41 111 72 152 72 l41 0 22 -117z m-371 -236 c4 -48 35 -71 117 -90 36 -8 79
-23 96 -33 35 -21 57 -49 46 -60 -3 -4 -59 1 -124 10 -188 27 -253 70 -253
170 0 34 1 35 29 30 16 -3 37 -1 48 5 27 16 38 8 41 -32z m-21 -155 c27 -11
73 -23 103 -26 91 -11 110 -17 130 -39 20 -21 28 -63 11 -52 -5 3 -45 10 -88
15 -107 14 -172 34 -221 70 -35 25 -42 36 -42 63 0 46 8 50 36 18 13 -16 45
-37 71 -49z m92 -107 c38 -8 59 -18 70 -35 15 -23 15 -23 -14 -16 -79 18 -136
40 -152 59 -18 20 -18 20 12 12 17 -5 54 -13 84 -20z m229 -27 c22 -22 13 -38
-22 -38 -33 0 -53 20 -40 41 8 13 48 11 62 -3z m58 -57 c-4 -6 -28 -11 -54
-10 -48 1 -48 3 1 13 16 4 27 13 27 23 0 16 1 16 16 1 9 -9 13 -21 10 -27z
m-245 18 c19 -6 41 -13 49 -15 13 -5 13 -6 0 -14 -27 -17 -78 -12 -90 9 -18
35 -13 38 41 20z m1797 -404 l122 0 0 -55 c0 -30 -4 -60 -8 -66 -11 -18 -70
-27 -156 -25 -101 2 -136 19 -137 66 -1 19 -2 45 -3 58 -3 33 2 38 32 30 15
-5 82 -8 150 -8z"/>
<path d="M1630 2395 c-10 -12 -10 -18 0 -29 16 -20 42 -8 38 17 -4 26 -21 32
-38 12z"/>
<path d="M1810 2670 c-9 -6 -10 -10 -3 -10 6 0 15 5 18 10 8 12 4 12 -15 0z"/>
<path d="M980 2210 c0 -5 5 -10 10 -10 6 0 10 5 10 10 0 6 -4 10 -10 10 -5 0
-10 -4 -10 -10z"/>
<path d="M2918 1065 c-2 -32 1 -55 7 -55 6 0 10 25 10 55 0 71 -12 71 -17 0z"/>
<path d="M2962 1055 c1 -30 6 -55 11 -55 5 0 7 18 4 40 -3 22 -3 40 -1 40 2 0
12 -18 21 -40 25 -57 39 -51 35 15 -2 30 -8 55 -12 55 -5 0 -6 -16 -3 -35 3
-19 3 -35 0 -35 -10 0 -37 57 -30 64 4 3 -1 6 -10 6 -13 0 -16 -10 -15 -55z"/>
<path d="M3054 1079 c3 -17 6 -42 6 -55 0 -13 4 -24 9 -24 4 0 6 11 3 25 -6
33 6 32 18 -1 6 -14 14 -22 20 -19 6 4 2 15 -10 27 -24 26 -24 28 -4 56 8 12
11 22 5 22 -5 0 -13 -9 -16 -20 -3 -11 -11 -20 -17 -20 -6 0 -8 9 -5 20 3 11
0 20 -5 20 -6 0 -8 -12 -4 -31z"/>
</g>
</svg>
